<svg width="414" height="403" viewBox="0 0 414 403" fill="none" xmlns="http://www.w3.org/2000/svg">
<path d="M96.6646 197.532C94.9752 189.837 94.8407 182.252 96.259 174.78C97.6774 167.305 100.36 160.49 104.308 154.329C108.257 148.167 113.305 142.866 119.444 138.428C125.588 133.992 132.529 130.913 140.27 129.194C147.194 127.658 154.107 127.395 161.015 128.408C167.923 129.417 174.485 131.689 180.702 135.207C184.779 129.404 189.713 124.582 195.511 120.749C201.309 116.914 207.715 114.221 214.725 112.666C222.468 110.949 230.027 110.804 237.411 112.239C244.796 113.671 251.565 116.351 257.725 120.268C263.884 124.184 269.171 129.231 273.583 135.411C277.996 141.588 281.042 148.527 282.732 156.222L303.293 249.948L265.998 258.227L245.437 164.501C244.873 161.935 243.866 159.635 242.42 157.603C240.97 155.569 239.219 153.892 237.16 152.574C235.103 151.25 232.856 150.36 230.412 149.893C227.969 149.428 225.475 149.477 222.923 150.043C220.373 150.609 218.065 151.626 215.997 153.092C213.934 154.56 212.221 156.333 210.86 158.413C209.505 160.49 208.589 162.758 208.128 165.217C207.665 167.675 207.715 170.184 208.276 172.752L228.838 266.478L191.679 274.727L171.118 181.001C170.554 178.435 169.528 176.139 168.034 174.117C166.538 172.093 164.764 170.423 162.707 169.101C160.651 167.778 158.402 166.887 155.959 166.42C153.518 165.955 151.021 166.005 148.47 166.571C145.92 167.136 143.611 168.153 141.544 169.62C139.479 171.088 137.789 172.855 136.476 174.925C135.164 176.992 134.254 179.26 133.744 181.729C133.236 184.196 133.261 186.711 133.825 189.278L154.386 283.004L117.226 291.253L96.6646 197.532Z" fill="#0F4C81"/>
<path d="M399.057 165.647C378.78 139.583 364.754 110.718 356.981 79.0948C349.229 47.4504 328.359 31.0759 294.416 30.012C260.493 28.9287 228.176 21.427 197.486 7.5245C166.795 -6.39745 140.434 -1.0002 118.382 23.7143C96.3521 48.4501 70.0759 67.9522 39.5733 82.2398C9.0727 96.5293 -2.94706 119.629 3.49591 151.538C9.95897 183.449 9.5148 215.257 2.16548 246.983C-5.18585 278.73 6.17876 302.116 36.2774 317.182C66.3761 332.247 92.0836 352.405 113.416 377.691C134.771 402.978 160.963 409.05 192.034 395.925C223.105 382.801 255.612 376.137 289.577 375.952C323.542 375.727 344.832 359.926 353.494 328.486C362.134 297.065 376.961 268.57 397.978 243.037C418.975 217.509 419.334 191.711 399.057 165.647ZM378.442 238.851C359.579 261.788 346.273 287.381 338.52 315.632C330.747 343.863 311.631 358.071 281.13 358.253C250.65 358.438 221.459 364.427 193.577 376.223C165.675 388.019 142.144 382.559 122.986 359.829C103.85 337.118 80.7411 318.985 53.7253 305.452C26.7095 291.919 16.5084 270.904 23.1182 242.387C29.7078 213.87 30.1098 185.291 24.3019 156.611C18.5141 127.95 29.3079 107.201 56.7036 94.3645C84.0792 81.5259 107.673 64.0078 127.444 41.7867C147.235 19.5657 170.915 14.7208 198.457 27.2327C226.001 39.7231 255.023 46.4682 285.481 47.429C315.962 48.3898 334.676 63.0878 341.645 91.523C348.615 119.958 361.205 145.878 379.413 169.305C397.642 192.713 397.305 215.895 378.442 238.851Z" fill="#0F4C81"/>
</svg>
